<?xml version="1.0" encoding="utf-8"?>
<!-- Generator: Adobe Illustrator 16.0.0, SVG Export Plug-In . SVG Version: 6.00 Build 0)  -->
<!DOCTYPE svg PUBLIC "-//W3C//DTD SVG 1.1//EN" "http://www.w3.org/Graphics/SVG/1.1/DTD/svg11.dtd">
<svg version="1.1" id="Layer_1" xmlns="http://www.w3.org/2000/svg" xmlns:xlink="http://www.w3.org/1999/xlink" x="0px" y="0px"
	 width="29.598px" height="29.594px" viewBox="0 0 29.598 29.594" enable-background="new 0 0 29.598 29.594" xml:space="preserve">
<g>
	<path fill="#FFFFFF" d="M21.986,7.229h-1.664c-0.389,0.062-0.629,0.417-0.727,1.064v2.544c0.098,0.646,0.338,1.003,0.727,1.064
		h1.664c0.613-0.062,0.952-0.419,1.008-1.064V8.294C22.938,7.646,22.6,7.291,21.986,7.229z"/>
	<path fill="#FFFFFF" d="M21.316,15.163c-0.007,3.746-1.97,5.586-5.894,5.521c-3.916,0.064-5.873-1.775-5.882-5.521
		c0-0.684,0.051-1.333,0.156-1.954H7.856v8.266c0.048,0.543,0.333,0.842,0.85,0.891h13.396c0.544-0.049,0.845-0.348,0.892-0.891
		v-8.266h-1.838C21.26,13.83,21.312,14.479,21.316,15.163z"/>
	<path fill="#FFFFFF" d="M15.423,19.374c1.305-0.029,2.383-0.465,3.245-1.303c0.857-0.836,1.304-1.889,1.34-3.148
		c-0.036-1.043-0.482-1.827-1.34-2.354c-0.862-0.526-1.94-0.79-3.245-0.79c-1.297,0-2.373,0.264-3.233,0.79
		c-0.861,0.527-1.309,1.311-1.34,2.354c0.031,1.26,0.479,2.312,1.34,3.148C13.05,18.909,14.126,19.344,15.423,19.374z"/>
	<path fill="#FFFFFF" d="M14.8,0C6.625,0,0,6.625,0,14.797c0,8.174,6.625,14.797,14.8,14.797c8.171,0,14.796-6.623,14.796-14.797
		C29.596,6.625,22.971,0,14.8,0z M24.305,22.073c-0.062,1.006-0.608,1.539-1.646,1.602H8.222c-1.053-0.062-1.607-0.596-1.673-1.602
		V7.63c0.065-1.082,0.62-1.65,1.673-1.707h14.438c1.037,0.057,1.584,0.625,1.646,1.707V22.073z"/>
</g>
</svg>
