<?xml version="1.0" encoding="utf-8"?>
<!-- Generator: Adobe Illustrator 16.0.0, SVG Export Plug-In . SVG Version: 6.00 Build 0)  -->
<!DOCTYPE svg PUBLIC "-//W3C//DTD SVG 1.1//EN" "http://www.w3.org/Graphics/SVG/1.1/DTD/svg11.dtd">
<svg version="1.1" id="Layer_1" xmlns="http://www.w3.org/2000/svg" xmlns:xlink="http://www.w3.org/1999/xlink" x="0px" y="0px"
	 width="29.598px" height="29.594px" viewBox="0 0 29.598 29.594" enable-background="new 0 0 29.598 29.594" xml:space="preserve">
<path fill="#FFFFFF" d="M14.8,0C6.625,0,0,6.625,0,14.797c0,8.174,6.625,14.797,14.8,14.797c8.171,0,14.796-6.623,14.796-14.797
	C29.596,6.625,22.971,0,14.8,0z M21.856,11.829c0.01,0.162,0.013,0.325,0.013,0.487c-0.016,2.629-0.903,5.045-2.669,7.241
	c-1.765,2.195-4.33,3.361-7.689,3.494c-2.084-0.027-3.951-0.59-5.588-1.693c0.288,0.033,0.582,0.049,0.879,0.049
	c1.731-0.031,3.236-0.568,4.521-1.611c-1.705-0.143-2.839-1.014-3.406-2.615c0.227,0.033,0.455,0.055,0.688,0.055
	c0.333,0,0.65-0.047,0.958-0.129c-1.804-0.492-2.776-1.729-2.918-3.699v-0.052c0.493,0.289,1.043,0.451,1.646,0.481
	c-1.031-0.73-1.57-1.779-1.622-3.143c0.009-0.706,0.171-1.339,0.497-1.902c1.887,2.378,4.385,3.691,7.504,3.945
	c-0.062-0.278-0.088-0.568-0.092-0.862c0.206-2.296,1.419-3.554,3.643-3.772c1.076,0.031,1.96,0.427,2.656,1.19
	c0.836-0.17,1.603-0.47,2.311-0.911c-0.29,0.896-0.823,1.592-1.599,2.08c0.737-0.088,1.435-0.286,2.09-0.584
	C23.18,10.634,22.571,11.281,21.856,11.829z"/>
</svg>
