<?xml version="1.0" encoding="utf-8"?>
<!-- Generator: Adobe Illustrator 16.0.0, SVG Export Plug-In . SVG Version: 6.00 Build 0)  -->
<!DOCTYPE svg PUBLIC "-//W3C//DTD SVG 1.1//EN" "http://www.w3.org/Graphics/SVG/1.1/DTD/svg11.dtd">
<svg version="1.1" id="Layer_1" xmlns="http://www.w3.org/2000/svg" xmlns:xlink="http://www.w3.org/1999/xlink" x="0px" y="0px"
	 width="29.598px" height="29.594px" viewBox="0 0 29.598 29.594" enable-background="new 0 0 29.598 29.594" xml:space="preserve">
<g>
	<path fill="#FFFFFF" d="M14.799,0C6.627,0,0,6.625,0,14.797c0,8.174,6.627,14.795,14.797,14.795
		c8.176,0,14.801-6.621,14.801-14.795C29.598,6.625,22.973,0,14.799,0 M23.924,15.485c0,1.479-0.182,2.955-0.182,2.955
		s-0.18,1.258-0.727,1.811c-0.693,0.729-1.473,0.73-1.828,0.773c-2.555,0.186-6.389,0.189-6.389,0.189s-4.746-0.043-6.207-0.184
		c-0.406-0.076-1.318-0.053-2.012-0.779c-0.547-0.555-0.725-1.812-0.725-1.812s-0.184-1.477-0.184-2.953V14.1
		c0-1.477,0.184-2.953,0.184-2.953s0.18-1.258,0.727-1.811c0.693-0.729,1.471-0.73,1.828-0.773c2.555-0.186,6.385-0.186,6.385-0.186
		h0.008c0,0,3.83,0,6.385,0.186c0.357,0.043,1.135,0.045,1.83,0.773c0.547,0.553,0.727,1.811,0.727,1.811s0.182,1.477,0.182,2.953
		v1.385H23.924z"/>
	<polygon fill="#FFFFFF" points="12.914,12.035 12.916,17.165 17.846,14.608 	"/>
</g>
</svg>
